<svg viewBox="0 0 300 300.621" xmlns="http://www.w3.org/2000/svg"  fill="white"><path d="M250 75.12H50a25 25 0 0 0-25 25v100a25 25 0 0 0 25 25h200a25 25 0 0 0 25-25v-100a25 25 0 0 0-25-25zm-133.875 110l-3.625-13.374h-23l-3.625 13.375h-21.25L87.5 113.497h26.125L137.5 185.12zm79.25-39.25a21.25 21.25 0 0 1-4.5 8 22.75 22.75 0 0 1-8.375 5.5 34.375 34.375 0 0 1-12.5 2.126h-5.5v23.625H145v-71.374h25a30.375 30.375 0 0 1 20.25 5.875 20.875 20.875 0 0 1 6.875 16.876 29.5 29.5 0 0 1-1.75 9.375zm32.25 39.25H208.25v-71.374h19.375zm-122-40.874l3 11.625H93.5l3-11.624c0-1.625 1-3.5 1.5-5.875s1.125-4.75 1.625-7.124a57.875 57.875 0 0 0 1.25-6c0 1.625.875 3.625 1.375 6.25l1.875 7.25zm69.875-12.5a7.125 7.125 0 0 1 2 5.375 9.375 9.375 0 0 1-1.375 5.25 7.375 7.375 0 0 1-3.375 2.75 11.25 11.25 0 0 1-4.625.876h-3.875V129.37h5a7.875 7.875 0 0 1 5.75 2.126z"/></svg>