<svg height="16" viewBox="0 0 16 16" width="16" xmlns="http://www.w3.org/2000/svg"><g fill="#eee"><path d="m2.1 3.1c.2 1.3.4 1.6.4 2.9 0 .8-1.5 1.5-1.5 1.5v1s1.5.7 1.5 1.5c0 1.3-.2 1.6-.4 2.9-.3 2.1.8 3.1 1.8 3.1s2.1 0 2.1 0v-2s-1.8.2-1.8-1c0-.9.2-.9.4-2.9.1-.9-.5-1.6-1.1-2.1.6-.5 1.2-1.1 1.1-2-.3-2-.4-2-.4-2.9 0-1.2 1.8-1.1 1.8-1.1v-2s-1 0-2.1 0-2.1 1-1.8 3.1z"/><path d="m13.9 3.1c-.2 1.3-.4 1.6-.4 2.9 0 .8 1.5 1.5 1.5 1.5v1s-1.5.7-1.5 1.5c0 1.3.2 1.6.4 2.9.3 2.1-.8 3.1-1.8 3.1s-2.1 0-2.1 0v-2s1.8.2 1.8-1c0-.9-.2-.9-.4-2.9-.1-.9.5-1.6 1.1-2.1-.6-.5-1.2-1.1-1.1-2 .2-2 .4-2 .4-2.9 0-1.2-1.8-1.1-1.8-1.1v-2h2.1s2.1 1 1.8 3.1z"/></g></svg>